<?xml version="1.0" encoding="UTF-8" standalone="no"?>
<svg width="112px" height="70px" viewBox="0 0 112 70" version="1.1" xmlns="http://www.w3.org/2000/svg" xmlns:xlink="http://www.w3.org/1999/xlink" xmlns:sketch="http://www.bohemiancoding.com/sketch/ns">
    <!-- Generator: Sketch 3.3.2 (12043) - http://www.bohemiancoding.com/sketch -->
    <title>bg-h-t-f-t-o-sprite</title>
    <desc>Created with Sketch.</desc>
    <defs></defs>
    <g id="Page-1" stroke="none" stroke-width="1" fill="none" fill-rule="evenodd" sketch:type="MSPage">
        <g id="bg-h-t-f-t-o-sprite" sketch:type="MSArtboardGroup">
            <g id="bg-h-t-f-t-o-sprite-glassDark" sketch:type="MSLayerGroup">
                <g id="glass" sketch:type="MSShapeGroup">
                    <path d="M55.5652342,5.57113514 L42.8491228,65.2701754 L42.7578961,65.2701754 L42.7578961,65.2701754 C41.9317313,67.512256 35.5955862,69.2561404 27.9017544,69.2561404 C20.2079226,69.2561404 13.8717775,67.512256 13.0456127,65.2701754 L13.0225055,65.2701754 L0.195244906,5.51572418 C1.83584388,7.74091633 13.6148017,9.46666667 27.9017544,9.46666667 C42.0698942,9.46666667 53.7715796,7.76950028 55.5652342,5.57113514 Z" id="Path" stroke="#676767" stroke-linecap="round" stroke-linejoin="round"></path>
                    <ellipse id="Oval-1" stroke="#676767" cx="27.9017544" cy="4.98245614" rx="27.9017544" ry="4.48421053"></ellipse>
                    <g id="water" transform="translate(9.964912, 30.891228)">
                        <ellipse id="Path-Copy" fill="#8D8D8D" cx="17.9368421" cy="3.98596491" rx="17.9368421" ry="3.4877193"></ellipse>
                        <path d="M5.71425439,29.9910773 C5.71425439,32.2405665 11.2125118,34.0641379 17.9949561,34.0641379 L17.9949561,34.0641379 C24.7774004,34.0641379 30.2756579,32.2405665 30.2756579,29.9910773" id="Path-Copy-2" stroke="#8D8D8D" stroke-linecap="round"></path>
                        <path d="M0.434991776,4.00640077 L5.71425439,30.1312089" id="Path-5" stroke="#8D8D8D"></path>
                    </g>
                </g>
            </g>
            <g id="bg-h-t-f-t-o-sprite-glassLight" sketch:type="MSLayerGroup" transform="translate(56.000000, 0.000000)">
                <path d="M55.5652342,5.57113514 L42.8491228,65.2701754 L42.7578961,65.2701754 L42.7578961,65.2701754 C41.9317313,67.512256 35.5955862,69.2561404 27.9017544,69.2561404 C20.2079226,69.2561404 13.8717775,67.512256 13.0456127,65.2701754 L13.0225055,65.2701754 L0.195244906,5.51572418 C1.83584388,7.74091633 13.6148017,9.46666667 27.9017544,9.46666667 C42.0698942,9.46666667 53.7715796,7.76950028 55.5652342,5.57113514 Z" id="Path" stroke="#B3B3B3" stroke-linecap="round" stroke-linejoin="round" sketch:type="MSShapeGroup"></path>
                <ellipse id="Oval-1" stroke="#B3B3B3" sketch:type="MSShapeGroup" cx="27.9017544" cy="4.98245614" rx="27.9017544" ry="4.48421053"></ellipse>
                <g id="water" transform="translate(9.964912, 30.891228)" sketch:type="MSShapeGroup">
                    <ellipse id="Path-Copy" fill="#D9D9D9" cx="17.9368421" cy="3.98596491" rx="17.9368421" ry="3.4877193"></ellipse>
                    <path d="M5.71425439,29.9910773 C5.71425439,32.2405665 11.2125118,34.0641379 17.9949561,34.0641379 L17.9949561,34.0641379 C24.7774004,34.0641379 30.2756579,32.2405665 30.2756579,29.9910773" id="Path-Copy-2" stroke="#D9D9D9" stroke-linecap="round"></path>
                    <path d="M0.434991776,4.00640077 L5.71425439,30.1312089" id="Path-5" stroke="#D9D9D9"></path>
                </g>
            </g>
        </g>
    </g>
</svg>